<svg width="60" height="60" viewBox="0 0 58 73" fill="none" xmlns="http://www.w3.org/2000/svg">
<path d="M26.6809 48.1218C26.7917 49.2135 27.6963 50.0259 28.7509 50.0259C28.8226 50.0259 28.8948 50.0222 28.9676 50.0145C30.1122 49.894 30.9442 48.8513 30.8259 47.6852L29.8652 38.2151C29.7469 37.049 28.7234 36.2027 27.5785 36.3223C26.4339 36.4429 25.6018 37.4856 25.7199 38.6514L26.6809 48.1218Z" fill="#292625"/>
<path d="M39.7201 50.0145C39.7929 50.0222 39.8651 50.0258 39.9368 50.0258C40.9911 50.0258 41.896 49.2132 42.0068 48.1218L42.9675 38.6517C43.0858 37.4856 42.2538 36.4429 41.1092 36.3226C39.9643 36.2032 38.9405 37.0498 38.8222 38.2153L37.8615 47.6855C37.7434 48.8515 38.5755 49.8943 39.7201 50.0145Z" fill="#292625"/>
<path d="M23.5867 59.239C20.0304 59.239 17.1372 62.1858 17.1372 65.808C17.1372 69.431 20.0304 72.3786 23.5867 72.3786C27.143 72.3786 30.0365 69.431 30.0365 65.808C30.0362 62.1861 27.143 59.239 23.5867 59.239ZM23.5867 68.1342C22.3282 68.1342 21.3044 67.0906 21.3044 65.808C21.3044 64.5262 22.3282 63.4835 23.5867 63.4835C24.8452 63.4835 25.8692 64.5262 25.8692 65.808C25.869 67.0906 24.8452 68.1342 23.5867 68.1342Z" fill="#292625"/>
<path d="M45.1013 59.239C41.5449 59.239 38.6515 62.1858 38.6515 65.808C38.6515 69.431 41.5449 72.3786 45.1013 72.3786C48.6579 72.3786 51.5516 69.431 51.5516 65.808C51.5516 62.1861 48.6579 59.239 45.1013 59.239ZM45.1013 68.1342C43.8428 68.1342 42.8187 67.0906 42.8187 65.808C42.8187 64.5262 43.8428 63.4835 45.1013 63.4835C46.3601 63.4835 47.3844 64.5262 47.3844 65.808C47.3844 67.0906 46.3601 68.1342 45.1013 68.1342Z" fill="#292625"/>
<path d="M57.5646 29.2432C57.1701 28.7234 56.5614 28.4189 55.9164 28.4189H14.3842L12.6404 21.588C12.4014 20.6528 11.5724 20 10.6237 20H2.08362C0.932907 20 0 20.9502 0 22.1222C0 23.2942 0.932907 24.2444 2.08362 24.2444H9.01264L10.7409 31.0134C10.7504 31.0559 10.7612 31.098 10.7732 31.1396L17.2046 56.3294C17.4435 57.2645 18.2725 57.9173 19.2213 57.9173H49.4682C50.417 57.9173 51.246 57.2645 51.4849 56.3294L57.9333 31.0751C58.095 30.4396 57.9591 29.763 57.5646 29.2432ZM47.8569 53.6735H20.8321L15.4677 32.6636H53.2213L47.8569 53.6735Z" fill="#292625"/>
<path d="M34.3507 21.1728C34.7574 21.5871 35.2908 21.7945 35.8239 21.7945C36.3573 21.7945 36.8905 21.5874 37.2972 21.1728L44.0426 14.3025C44.8563 13.4738 44.8563 12.13 44.0426 11.3015C43.2288 10.473 41.9095 10.473 41.096 11.3015L37.91 14.5465L37.9106 2.12249C37.9106 0.950466 36.978 0 35.8273 0H35.827C34.6763 0 33.7434 0.950183 33.7434 2.12192L33.7428 14.551L30.5568 11.306C29.7431 10.4772 28.4237 10.4772 27.6103 11.306C26.7966 12.1348 26.7966 13.4786 27.6103 14.3071L34.3507 21.1728Z" fill="#292625"/>
</svg>
