<svg width="48" height="48" viewBox="0 0 48 48" fill="none" xmlns="http://www.w3.org/2000/svg">
<path d="M40.8 11.84C37.6 11.52 34.88 12.32 32.32 14.24C31.2 15.04 30.24 15.84 31.84 17.44C29.44 16.96 27.2 16.64 24.96 16.16C25.92 14.08 26.72 12.16 27.68 10.08C28 10.72 28.32 11.04 28.64 11.68C32.8 9.12 36.8 9.12 40.8 11.84Z" fill="#EE2524"/>
<path d="M8.47998 19.36C8.95998 26.4 9.43998 33.44 10.08 40.48C10.24 41.76 11.04 42.24 12.32 42.24C17.6 42.24 23.04 42.24 28.32 42.24C29.92 42.24 30.56 41.6 30.72 40.16C31.04 36 31.36 32 31.68 27.84C31.84 24.96 32 22.24 32.32 19.36C24.16 19.36 16.32 19.36 8.47998 19.36ZM14.24 39.36C13.28 39.36 12.48 39.52 12.32 38.08C12 33.28 11.84 28.64 11.52 23.84C11.52 22.88 11.68 22.24 12.8 22.24C15.04 22.24 15.04 22.24 15.2 23.84C15.2 26.24 15.2 28.48 15.2 30.88C15.36 30.88 15.52 30.88 15.68 30.88C15.68 33.28 15.68 35.52 15.68 37.92C15.68 39.04 15.2 39.36 14.24 39.36ZM22.08 31.04C22.08 32.8 22.08 34.56 22.08 36.32C22.08 36.96 22.08 37.44 22.08 38.08C22.08 39.68 21.12 39.52 20.16 39.52C19.2 39.52 18.4 39.52 18.4 38.08C18.4 33.44 18.4 28.64 18.4 24C18.4 22.56 19.2 22.56 20.32 22.56C21.44 22.56 22.24 22.56 22.24 24.16C22.24 24.8 22.24 25.28 22.24 25.92C22.08 27.36 22.08 29.12 22.08 31.04ZM29.12 23.68C28.8 28.48 28.48 33.12 28.32 37.92C28.32 39.36 27.36 39.2 26.4 39.2C25.44 39.2 24.96 38.88 24.96 37.76C24.96 35.36 24.96 33.12 24.96 30.72C25.12 30.72 25.28 30.72 25.44 30.72C25.44 28.32 25.44 25.92 25.44 23.52C25.44 22.24 25.6 22.08 27.84 22.08C28.8 22.24 29.12 22.72 29.12 23.68Z" fill="#EE2524"/>
<path d="M26.2401 6.24C24.4801 7.04 22.7201 7.84 20.9601 8.64C20.8001 8.32 20.6401 8.16 20.6401 8C20.1601 6.72 19.5201 6.56 18.4001 7.2C17.2801 7.84 16.1601 8.32 15.0401 8.8C13.9201 9.12 13.7601 9.76 14.0801 10.56C14.2401 10.88 14.4001 11.2 14.5601 11.52C12.8001 12.32 11.0401 13.12 9.28007 13.92C6.88007 15.04 6.56007 16 8.00007 18.24C15.3601 14.88 22.8801 11.52 30.2401 8C29.2801 5.6 28.4801 5.12 26.2401 6.24ZM15.3601 11.2C15.2001 10.72 15.0401 10.24 14.7201 9.76C16.3201 9.12 17.7601 8.32 19.3601 7.68C19.6801 8.16 19.8401 8.48 20.0001 9.12C18.4001 9.76 16.9601 10.4 15.3601 11.2Z" fill="#EE2524"/>
</svg>
