<svg width="22" height="22" viewBox="0 0 62 62" fill="none" xmlns="http://www.w3.org/2000/svg">
<circle r="30.5" transform="matrix(1 0 0 -1 31 31)" stroke="#EE2524"/>
<g clip-path="url(#clip0)">
<path d="M31.2257 33.1618H19.1486C18.8455 33.1618 18.5996 32.6958 18.5996 32.1217C18.5996 31.5475 18.8455 31.0815 19.1486 31.0815H31.2257C31.5287 31.0815 31.7746 31.5475 31.7746 32.1217C31.7746 32.6958 31.5287 33.1618 31.2257 33.1618Z" fill="#EE2524"/>
<path d="M43.8517 24.4327H19.6975C19.0915 24.4327 18.5996 23.9408 18.5996 23.3347C18.5996 22.7287 19.0915 22.2368 19.6975 22.2368H43.8517C44.4577 22.2368 44.9496 22.7287 44.9496 23.3347C44.9496 23.9408 44.4577 24.4327 43.8517 24.4327Z" fill="#EE2524"/>
<path d="M43.8517 41.2673H19.6975C19.0915 41.2673 18.5996 40.7754 18.5996 40.1693C18.5996 39.5633 19.0915 39.0714 19.6975 39.0714H43.8517C44.4577 39.0714 44.9496 39.5633 44.9496 40.1693C44.9496 40.7754 44.4577 41.2673 43.8517 41.2673Z" fill="#EE2524"/>
</g>
<defs>
<clipPath id="clip0">
<rect width="26.35" height="26.35" fill="white" transform="translate(18.5996 18.6)"/>
</clipPath>
</defs>
</svg>
