<svg width="60" height="60" viewBox="0 0 52 56" fill="none" xmlns="http://www.w3.org/2000/svg">
<path d="M10.3833 22.1448C11.723 22.1448 13.1465 22.1448 14.5701 22.1448C14.5701 22.862 14.5701 23.6689 14.5701 24.3862C13.9002 24.3862 13.2303 24.3862 12.4767 24.3862C12.4767 25.1034 12.4767 25.8207 12.4767 26.5379C13.1465 26.5379 13.8164 26.5379 14.5701 26.5379C14.5701 25.8207 14.5701 25.1034 14.5701 24.2965C15.2399 24.2965 15.9936 24.2965 16.6635 24.2965C16.6635 25.0138 16.6635 25.731 16.6635 26.5379C18.087 26.5379 19.4267 26.5379 20.7665 26.5379C20.7665 25.8207 20.7665 25.1034 20.7665 24.2965C19.343 24.2965 18.0032 24.2965 16.6635 24.2965C16.6635 23.5793 16.6635 22.862 16.6635 22.0551C18.7569 22.0551 20.7665 22.0551 22.8599 22.0551C22.8599 22.7724 22.8599 23.4896 22.8599 24.2069C23.5298 24.2069 24.1997 24.2069 24.9533 24.2069C24.9533 22.7724 24.9533 21.2482 24.9533 19.8138C24.2834 19.8138 23.6135 19.8138 22.9436 19.8138C22.9436 19.0965 22.9436 18.3793 22.9436 17.5724C24.2834 17.5724 25.6232 17.5724 27.0467 17.5724C27.0467 18.2896 27.0467 19.0069 27.0467 19.7241C27.7166 19.7241 28.4702 19.7241 29.1401 19.7241C29.1401 20.4414 29.1401 21.1586 29.1401 21.9655C28.4702 21.9655 27.8003 21.9655 27.0467 21.9655C27.0467 23.4896 27.0467 24.9241 27.0467 26.4483C25.7069 26.4483 24.3672 26.4483 22.9436 26.4483C22.9436 27.8827 22.9436 29.3172 22.9436 30.8414C23.6135 30.8414 24.2834 30.8414 24.9533 30.8414C24.9533 31.5586 24.9533 32.2758 24.9533 33.0827C24.2834 33.0827 23.6135 33.0827 22.8599 33.0827C22.8599 33.8896 22.8599 34.6069 22.8599 35.3241C22.19 35.3241 21.5201 35.3241 20.7665 35.3241C20.7665 36.0414 20.7665 36.8482 20.7665 37.5655C21.4364 37.5655 22.1063 37.5655 22.8599 37.5655C22.8599 38.2827 22.8599 39 22.8599 39.8069C20.7665 39.8069 18.7569 39.8069 16.6635 39.8069C16.6635 39.0896 16.6635 38.3724 16.6635 37.6551C13.9002 37.6551 11.1369 37.6551 8.37359 37.6551C8.37359 36.9379 8.37359 36.2207 8.37359 35.4138C5.61031 35.4138 2.84702 35.4138 0.167472 35.4138C0.167472 34.6965 0.167472 33.9793 0.167472 33.1724C2.17713 33.1724 4.27053 33.1724 6.2802 33.1724C6.2802 32.4551 6.2802 31.7379 6.2802 30.931C6.95008 30.931 7.61997 30.931 8.37359 30.931C8.37359 31.6483 8.37359 32.3655 8.37359 33.1724C9.12722 33.1724 9.7971 33.1724 10.467 33.1724C10.467 33.8896 10.467 34.6069 10.467 35.4138C12.5604 35.4138 14.6538 35.4138 16.6635 35.4138C16.6635 34.6965 16.6635 33.9793 16.6635 33.1724C18.087 33.1724 19.4267 33.1724 20.7665 33.1724C20.7665 31.6483 20.7665 30.2138 20.7665 28.7793C18.0032 28.7793 15.2399 28.7793 12.4767 28.7793C12.4767 29.4965 12.4767 30.2138 12.4767 31.0207C13.1465 31.0207 13.8164 31.0207 14.4863 31.0207C14.4863 31.7379 14.4863 32.4551 14.4863 33.262C13.0628 33.262 11.723 33.262 10.3833 33.262C10.3833 31.1103 10.3833 28.8689 10.3833 26.7172C9.71337 26.7172 9.04348 26.7172 8.28986 26.7172C8.28986 27.4345 8.28986 28.1517 8.28986 28.8689C7.61997 28.8689 6.95008 28.8689 6.19646 28.8689C6.19646 28.1517 6.19646 27.4345 6.19646 26.7172C5.52657 26.7172 4.85668 26.7172 4.10306 26.7172C4.10306 28.1517 4.10306 29.5862 4.10306 31.1103C2.76329 31.1103 1.33977 31.1103 0 31.1103C0 30.3931 0 29.6758 0 28.9586C0.669887 28.9586 1.33978 28.9586 2.00966 28.9586C2.00966 28.2414 2.00966 27.5241 2.00966 26.8069C1.33978 26.8069 0.669887 26.8069 0 26.8069C0 26.0896 0 25.3724 0 24.5655C0.669887 24.5655 1.33978 24.5655 2.00966 24.5655C2.00966 23.8483 2.00966 23.131 2.00966 22.3241C1.33978 22.3241 0.669887 22.3241 0 22.3241C0 20.8 0 19.3655 0 17.931C2.00966 17.931 4.10306 17.931 6.11272 17.931C6.11272 19.3655 6.11272 20.8896 6.11272 22.3241C6.86635 22.3241 7.53623 22.3241 8.20612 22.3241C8.20612 23.0414 8.20612 23.7586 8.20612 24.5655C8.87601 24.5655 9.62963 24.5655 10.2995 24.5655C10.3833 23.6689 10.3833 22.9517 10.3833 22.1448Z" fill="#292625"/>
<path d="M37.3461 51.0138C36.6762 51.0138 35.9226 51.0138 35.2527 51.0138C35.2527 50.2965 35.2527 49.5793 35.2527 48.7724C34.5828 48.7724 33.8292 48.7724 33.1593 48.7724C33.1593 49.4897 33.1593 50.2069 33.1593 51.0138C32.4894 51.0138 31.7358 51.0138 31.0659 51.0138C31.0659 48.0552 31.0659 45.0965 31.0659 42.1379C31.7358 42.1379 32.4057 42.1379 33.1593 42.1379C33.1593 39.8966 33.1593 37.7448 33.1593 35.5034C33.8292 35.5034 34.4991 35.5034 35.2527 35.5034C35.2527 34.7862 35.2527 34.069 35.2527 33.2621C35.9226 33.2621 36.5925 33.2621 37.3461 33.2621C37.3461 32.5448 37.3461 31.8276 37.3461 31.0207C36.0063 31.0207 34.5828 31.0207 33.2431 31.0207C33.2431 31.7379 33.2431 32.4552 33.2431 33.2621C32.4894 33.2621 31.8195 33.2621 31.1497 33.2621C31.1497 31.1103 31.1497 28.869 31.1497 26.7172C31.8195 26.7172 32.4894 26.7172 33.2431 26.7172C33.2431 27.4345 33.2431 28.1517 33.2431 28.869C34.6666 28.869 36.0063 28.869 37.3461 28.869C37.3461 27.4345 37.3461 26 37.3461 24.4759C38.016 24.4759 38.7696 24.4759 39.4395 24.4759C39.4395 25.5517 39.4395 26.5379 39.4395 27.6138C39.4395 28.0621 39.4395 28.4207 39.4395 28.869C40.1094 28.869 40.7793 28.869 41.5329 28.869C41.5329 31.1103 41.5329 33.2621 41.5329 35.5034C42.2028 35.5034 42.8727 35.5034 43.6263 35.5034C43.6263 37.0276 43.6263 38.4621 43.6263 39.9862C44.3799 39.9862 45.0498 39.9862 45.7197 39.9862C45.7197 40.7034 45.7197 41.4207 45.7197 42.2276C45.0498 42.2276 44.3799 42.2276 43.6263 42.2276C43.6263 42.9448 43.6263 43.6621 43.6263 44.469C44.2962 44.469 44.9661 44.469 45.7197 44.469C45.7197 45.1862 45.7197 45.9034 45.7197 46.7103C46.3896 46.7103 47.0595 46.7103 47.8131 46.7103C47.8131 45.9931 47.8131 45.2759 47.8131 44.5586C48.483 44.5586 49.1529 44.5586 49.9065 44.5586C49.9065 45.9931 49.9065 47.5172 49.9065 48.9517C50.5764 48.9517 51.2463 48.9517 51.9999 48.9517C51.9999 49.669 51.9999 50.3862 51.9999 51.1931C50.6601 51.1931 49.2366 51.1931 47.8968 51.1931C47.8968 50.4759 47.8968 49.7586 47.8968 49.0414C46.4733 49.0414 45.1336 49.0414 43.71 49.0414C43.71 50.4759 43.71 52 43.71 53.4345C42.3703 53.4345 40.9468 53.4345 39.607 53.4345C39.607 54.1517 39.607 54.869 39.607 55.6759C38.9371 55.6759 38.2672 55.6759 37.5136 55.6759C37.2624 53.8828 37.2624 52.4483 37.3461 51.0138C38.6859 51.0138 40.1094 51.0138 41.4492 51.0138C41.4492 49.4897 41.4492 48.0552 41.4492 46.6207C40.0257 46.6207 38.6859 46.6207 37.3461 46.6207C37.3461 48.0552 37.3461 49.4 37.3461 51.0138ZM41.4492 37.6552C39.3558 37.6552 37.3461 37.6552 35.2527 37.6552C35.2527 39.8966 35.2527 42.0483 35.2527 44.2897C37.3461 44.2897 39.3558 44.2897 41.4492 44.2897C41.4492 42.1379 41.4492 39.8966 41.4492 37.6552Z" fill="#292625"/>
<path d="M0.0837402 55.3172C0.0837402 50.1172 0.0837402 45.0069 0.0837402 39.8069C4.85669 39.8069 9.71337 39.8069 14.4863 39.8069C14.4863 45.0069 14.4863 50.1172 14.4863 55.3172C9.71337 55.3172 4.94042 55.3172 0.0837402 55.3172ZM12.4767 42.1379C9.04349 42.1379 5.61031 42.1379 2.17714 42.1379C2.17714 45.8138 2.17714 49.4896 2.17714 53.1655C5.61031 53.1655 9.04349 53.1655 12.4767 53.1655C12.4767 49.4 12.4767 45.7241 12.4767 42.1379Z" fill="#292625"/>
<path d="M51.8325 15.5103C46.9758 15.5103 42.2029 15.5103 37.3462 15.5103C37.3462 10.4 37.3462 5.19998 37.3462 0.0896301C42.2029 0.0896301 46.9758 0.0896301 51.8325 0.0896301C51.8325 5.19998 51.8325 10.4 51.8325 15.5103ZM39.3559 13.2689C42.789 13.2689 46.2222 13.2689 49.6554 13.2689C49.6554 9.59308 49.6554 5.91722 49.6554 2.24135C46.2222 2.24135 42.789 2.24135 39.3559 2.24135C39.3559 5.91722 39.3559 9.59308 39.3559 13.2689Z" fill="#292625"/>
<path d="M14.5701 15.5103C9.71338 15.5103 4.94043 15.5103 0.16748 15.5103C0.16748 10.4 0.16748 5.19998 0.16748 0.0896301C4.94043 0.0896301 9.79711 0.0896301 14.5701 0.0896301C14.5701 5.19998 14.5701 10.4 14.5701 15.5103ZM12.4767 2.24135C9.04349 2.24135 5.61032 2.24135 2.17714 2.24135C2.17714 5.91722 2.17714 9.59308 2.17714 13.2689C5.61032 13.2689 9.04349 13.2689 12.4767 13.2689C12.4767 9.59308 12.4767 5.91722 12.4767 2.24135Z" fill="#292625"/>
<path d="M39.3559 22.1448C38.686 22.1448 38.0161 22.1448 37.2625 22.1448C37.2625 21.4276 37.2625 20.7103 37.2625 19.9035C36.5926 19.9035 35.9227 19.9035 35.1691 19.9035C35.1691 21.3379 35.1691 22.8621 35.1691 24.2966C33.7456 24.2966 32.4058 24.2966 30.9823 24.2966C30.9823 22.8621 30.9823 21.3379 30.9823 19.9035C30.2287 19.9035 29.5588 19.9035 28.8889 19.9035C28.8889 17.8414 28.8889 15.6897 28.8889 13.6276C28.8889 13.5379 28.8889 13.4483 28.8889 13.269C29.5588 13.269 30.2287 13.269 30.9823 13.269C30.9823 14.7034 30.9823 16.2276 30.9823 17.6621C31.6522 17.6621 32.3221 17.6621 33.0757 17.6621C33.0757 15.4207 33.0757 13.269 33.0757 11.0276C33.7456 11.0276 34.4155 11.0276 35.1691 11.0276C35.1691 13.269 35.1691 15.4207 35.1691 17.6621C37.9324 17.6621 40.6957 17.6621 43.459 17.6621C43.459 18.469 43.459 19.1862 43.459 19.9035C42.1192 19.9035 40.6957 19.9035 39.2722 19.9035C39.3559 20.7103 39.3559 21.4276 39.3559 22.1448Z" fill="#292625"/>
<path d="M22.8599 11.1172C22.8599 10.0414 22.8599 9.05517 22.8599 7.9793C22.8599 7.53103 22.8599 7.08275 22.8599 6.63448C24.1996 6.63448 25.5394 6.63448 26.9629 6.63448C26.9629 5.91724 26.9629 5.19999 26.9629 4.3931C27.6328 4.3931 28.3027 4.3931 29.0563 4.3931C29.0563 5.11034 29.0563 5.82758 29.0563 6.63448C29.8099 6.63448 30.4798 6.63448 31.1497 6.63448C31.1497 8.06896 31.1497 9.5931 31.1497 11.0276C29.8099 11.0276 28.3864 11.0276 27.0467 11.0276C27.0467 12.5517 27.0467 13.9862 27.0467 15.4207C26.3768 15.4207 25.7069 15.4207 25.037 15.4207C25.037 13.9862 25.037 12.4621 25.037 11.0276C24.1996 11.1172 23.5298 11.1172 22.8599 11.1172Z" fill="#292625"/>
<path d="M20.7664 15.5103C20.7664 16.9448 20.7664 18.469 20.7664 19.9034C19.3429 19.9034 18.0031 19.9034 16.6633 19.9034C16.6633 16.2276 16.6633 12.5517 16.6633 8.87585C17.3332 8.87585 18.0031 8.87585 18.7567 8.87585C18.7567 9.5931 18.7567 10.3103 18.7567 11.1172C20.1802 11.1172 21.52 11.1172 22.9435 11.1172C22.9435 12.5517 22.9435 14.0759 22.9435 15.6C22.1062 15.5103 21.4363 15.5103 20.7664 15.5103C20.7664 14.7931 20.7664 14.0759 20.7664 13.269C20.0965 13.269 19.4266 13.269 18.7567 13.269C18.7567 13.9862 18.7567 14.7034 18.7567 15.5103C19.4266 15.5103 20.0965 15.5103 20.7664 15.5103Z" fill="#292625"/>
<path d="M22.8599 35.4138C24.1996 35.4138 25.5394 35.4138 26.9629 35.4138C26.9629 39.0897 26.9629 42.7655 26.9629 46.5311C26.293 46.5311 25.6231 46.5311 24.9533 46.5311C24.9533 45.8138 24.9533 45.0966 24.9533 44.3793C24.2834 44.3793 23.5297 44.3793 22.8599 44.3793C22.8599 43.6621 22.8599 42.9449 22.8599 42.138C23.5297 42.138 24.1996 42.138 24.8695 42.138C24.8695 40.6138 24.8695 39.1793 24.8695 37.6552C24.1996 37.6552 23.5297 37.6552 22.7761 37.6552" fill="#292625"/>
<path d="M18.673 4.3931C18.0031 4.3931 17.3332 4.3931 16.5796 4.3931C16.5796 2.95862 16.5796 1.52414 16.5796 0C19.3429 0 22.1062 0 24.8694 0C24.8694 1.43448 24.8694 2.86897 24.8694 4.3931C24.1996 4.3931 23.5297 4.3931 22.8598 4.3931C22.8598 3.67586 22.8598 2.95862 22.8598 2.24138C21.4363 2.24138 20.0965 2.24138 18.673 2.24138C18.673 2.95862 18.673 3.67586 18.673 4.3931Z" fill="#292625"/>
<path d="M47.6455 22.1448C47.6455 21.1586 47.6455 20.0827 47.6455 19.0965C47.6455 18.6483 47.6455 18.2 47.6455 17.7517C48.9853 17.7517 50.4088 17.7517 51.7486 17.7517C51.7486 19.9034 51.7486 22.1448 51.7486 24.3862C51.0787 24.3862 50.4088 24.3862 49.7389 24.3862C49.7389 23.669 49.7389 22.9517 49.7389 22.2345C49.069 22.1448 48.3991 22.1448 47.6455 22.1448Z" fill="#292625"/>
<path d="M24.9532 48.7724C24.9532 49.4897 24.9532 50.2069 24.9532 50.9241C25.623 50.9241 26.2929 50.9241 26.9628 50.9241C26.9628 52.4483 26.9628 53.8828 26.9628 55.3173C26.2929 55.3173 25.623 55.3173 24.9532 55.3173C24.9532 54.6 24.9532 53.8828 24.9532 53.1655C24.2833 53.1655 23.6134 53.1655 22.8598 53.1655C22.8598 52.4483 22.8598 51.731 22.8598 50.9241C22.1899 50.9241 21.52 50.9241 20.7664 50.9241C20.7664 50.2069 20.7664 49.4897 20.7664 48.6828C22.1899 48.7724 23.5296 48.7724 24.9532 48.7724Z" fill="#292625"/>
<path d="M16.6633 48.7724C17.3332 48.7724 18.0031 48.7724 18.673 48.7724C18.673 50.2069 18.673 51.731 18.673 53.1655C19.3429 53.1655 20.0128 53.1655 20.7664 53.1655C20.7664 53.8827 20.7664 54.6 20.7664 55.4069C19.4266 55.4069 18.0031 55.4069 16.6633 55.4069C16.6633 53.2552 16.6633 51.0138 16.6633 48.7724Z" fill="#292625"/>
<path d="M43.5427 19.9034C44.2126 19.9034 44.8825 19.9034 45.6361 19.9034C45.6361 20.6207 45.6361 21.3379 45.6361 22.1448C46.3897 22.1448 47.0596 22.1448 47.7295 22.1448C47.7295 22.8621 47.7295 23.5793 47.7295 24.3862C47.0596 24.3862 46.3897 24.3862 45.6361 24.3862C45.6361 25.1034 45.6361 25.8207 45.6361 26.6276C44.9662 26.6276 44.2963 26.6276 43.5427 26.6276C43.5427 24.3862 43.5427 22.1448 43.5427 19.9034Z" fill="#292625"/>
<path d="M47.6455 31.0207C47.6455 30.3034 47.6455 29.5862 47.6455 28.7793C48.3154 28.7793 48.9853 28.7793 49.7389 28.7793C49.7389 28.062 49.7389 27.3448 49.7389 26.6276C50.4088 26.6276 51.0787 26.6276 51.8323 26.6276C51.8323 28.7793 51.8323 31.0207 51.8323 33.1724C51.1624 33.1724 50.4925 33.1724 49.8226 33.1724C49.8226 32.4552 49.8226 31.7379 49.8226 30.931C49.069 31.0207 48.3154 31.0207 47.6455 31.0207Z" fill="#292625"/>
<path d="M47.6458 31.0207C47.6458 31.7379 47.6458 32.4551 47.6458 33.262C46.306 33.262 44.8825 33.262 43.5427 33.262C43.5427 32.5448 43.5427 31.8276 43.5427 31.0207C44.8825 31.0207 46.306 31.0207 47.6458 31.0207Z" fill="#292625"/>
<path d="M31.0661 51.0138C31.0661 52.4483 31.0661 53.9724 31.0661 55.4069C30.3962 55.4069 29.7263 55.4069 28.9727 55.4069C28.9727 53.9724 28.9727 52.4483 28.9727 51.0138C29.7263 51.0138 30.3962 51.0138 31.0661 51.0138Z" fill="#292625"/>
<path d="M10.3831 19.9034C10.3831 19.1862 10.3831 18.4689 10.3831 17.662C11.7228 17.662 13.1463 17.662 14.4861 17.662C14.4861 18.3793 14.4861 19.0965 14.4861 19.8138C13.1463 19.9034 11.8066 19.9034 10.3831 19.9034Z" fill="#292625"/>
<path d="M31.0661 42.1379C30.3962 42.1379 29.7263 42.1379 28.9727 42.1379C28.9727 40.7034 28.9727 39.1793 28.9727 37.7448C29.6425 37.7448 30.3124 37.7448 31.0661 37.7448C31.0661 39.0896 31.0661 40.5241 31.0661 42.1379Z" fill="#292625"/>
<path d="M35.2528 51.0138C35.2528 52.4483 35.2528 53.9724 35.2528 55.4069C34.5829 55.4069 33.913 55.4069 33.1594 55.4069C33.1594 53.9724 33.1594 52.4483 33.1594 51.0138C33.8293 51.0138 34.4992 51.0138 35.2528 51.0138Z" fill="#292625"/>
<path d="M20.7664 44.2896C19.4266 44.2896 18.0031 44.2896 16.6633 44.2896C16.6633 43.5724 16.6633 42.8552 16.6633 42.1379C18.0031 42.1379 19.4266 42.1379 20.7664 42.1379C20.7664 42.7655 20.7664 43.5724 20.7664 44.2896Z" fill="#292625"/>
<path d="M49.739 37.6552C50.4089 37.6552 51.0788 37.6552 51.8324 37.6552C51.8324 39.0897 51.8324 40.6138 51.8324 42.0483C51.1625 42.0483 50.4926 42.0483 49.739 42.0483C49.739 40.5241 49.739 39.0897 49.739 37.6552Z" fill="#292625"/>
<path d="M43.5427 53.2552C44.2126 53.2552 44.8825 53.2552 45.6361 53.2552C45.6361 53.9724 45.6361 54.6897 45.6361 55.4965C44.9662 55.4965 44.2963 55.4965 43.6265 55.4965C43.5427 54.6897 43.5427 53.8828 43.5427 53.2552C43.5427 53.0759 43.5427 53.2552 43.5427 53.2552Z" fill="#292625"/>
<path d="M49.739 55.3172C49.739 54.6 49.739 53.8827 49.739 53.1655C50.4089 53.1655 51.0788 53.1655 51.7487 53.1655C51.7487 53.8827 51.7487 54.6 51.7487 55.3172C51.0788 55.3172 50.4089 55.3172 49.739 55.3172Z" fill="#292625"/>
<path d="M20.7664 44.3793C21.4362 44.3793 22.1899 44.3793 22.8598 44.3793C22.8598 45.0965 22.8598 45.8138 22.8598 46.6207C22.1899 46.6207 21.52 46.6207 20.7664 46.6207C20.7664 45.7241 20.7664 45.0069 20.7664 44.3793C20.7664 44.2896 20.7664 44.3793 20.7664 44.3793Z" fill="#292625"/>
<path d="M45.6361 39.8966C45.6361 39.1793 45.6361 38.4621 45.6361 37.6552C46.306 37.6552 47.0596 37.6552 47.7295 37.6552C47.7295 38.3724 47.7295 39.0897 47.7295 39.8966C46.9759 39.8966 46.306 39.8966 45.6361 39.8966C45.5524 39.8966 45.6361 39.8966 45.6361 39.8966Z" fill="#292625"/>
<path d="M47.6455 37.6552C47.6455 36.938 47.6455 36.2207 47.6455 35.4138C48.3154 35.4138 48.9853 35.4138 49.7389 35.4138C49.7389 36.1311 49.7389 36.8483 49.7389 37.6552C49.069 37.6552 48.3154 37.6552 47.6455 37.6552Z" fill="#292625"/>
<path d="M31.0661 33.1724C31.0661 33.8897 31.0661 34.6069 31.0661 35.4138C30.3962 35.4138 29.7263 35.4138 28.9727 35.4138C28.9727 34.6966 28.9727 33.9793 28.9727 33.2621C29.7263 33.1724 30.3962 33.1724 31.0661 33.1724Z" fill="#292625"/>
<path d="M26.9629 28.6896C27.6328 28.6896 28.3027 28.6896 28.9726 28.6896C28.9726 29.4069 28.9726 30.1241 28.9726 30.8414C28.3027 30.8414 27.6328 30.8414 26.9629 30.8414C26.9629 30.2138 26.9629 29.5862 26.9629 28.6896Z" fill="#292625"/>
<path d="M39.356 22.1448C40.0258 22.1448 40.6957 22.1448 41.4494 22.1448C41.4494 22.862 41.4494 23.5793 41.4494 24.3862C40.7795 24.3862 40.1096 24.3862 39.356 24.3862C39.356 23.6689 39.356 22.9517 39.356 22.1448Z" fill="#292625"/>
<path d="M10.3832 19.9034C10.3832 20.6207 10.3832 21.4276 10.3832 22.1448C9.71331 22.1448 8.95968 22.1448 8.28979 22.1448C8.28979 21.4276 8.28979 20.7103 8.28979 19.9034C9.04342 19.9034 9.71331 19.9034 10.3832 19.9034Z" fill="#292625"/>
<path d="M31.0659 6.63448C31.0659 5.91724 31.0659 5.19999 31.0659 4.3931C31.7358 4.3931 32.4057 4.3931 33.1593 4.3931C33.1593 5.11034 33.1593 5.82758 33.1593 6.54482C32.4894 6.63448 31.7358 6.63448 31.0659 6.63448Z" fill="#292625"/>
<path d="M18.6731 4.48275C19.343 4.48275 20.0129 4.48275 20.7665 4.48275C20.7665 5.19999 20.7665 5.91723 20.7665 6.72413C20.0966 6.72413 19.4267 6.72413 18.7568 6.72413C18.6731 5.91723 18.6731 5.19999 18.6731 4.48275C18.6731 4.39309 18.6731 4.48275 18.6731 4.48275Z" fill="#292625"/>
<path d="M31.0661 2.24135C30.3962 2.24135 29.7263 2.24135 29.0564 2.24135C29.0564 1.52411 29.0564 0.806871 29.0564 0.0896301C29.7263 0.0896301 30.3962 0.0896301 31.0661 0.0896301C31.0661 0.806871 31.0661 1.52411 31.0661 2.24135Z" fill="#292625"/>
<path d="M37.3462 42.1379C37.3462 41.4207 37.3462 40.7034 37.3462 39.9862C38.0161 39.9862 38.686 39.9862 39.3559 39.9862C39.3559 40.7034 39.3559 41.4207 39.3559 42.1379C38.686 42.1379 38.0161 42.1379 37.3462 42.1379Z" fill="#292625"/>
<path d="M10.3832 44.3793C10.3832 46.6207 10.3832 48.7724 10.3832 51.0138C8.28983 51.0138 6.28017 51.0138 4.18677 51.0138C4.18677 48.7724 4.18677 46.6207 4.18677 44.3793C6.28017 44.3793 8.28983 44.3793 10.3832 44.3793Z" fill="#292625"/>
<path d="M41.4495 11.1172C41.4495 8.87586 41.4495 6.72414 41.4495 4.48276C43.5429 4.48276 45.5525 4.48276 47.6459 4.48276C47.6459 6.72414 47.6459 8.87586 47.6459 11.1172C45.6363 11.1172 43.5429 11.1172 41.4495 11.1172Z" fill="#292625"/>
<path d="M10.3832 11.1172C8.28983 11.1172 6.28017 11.1172 4.18677 11.1172C4.18677 8.87586 4.18677 6.72414 4.18677 4.48276C6.28017 4.48276 8.28983 4.48276 10.3832 4.48276C10.3832 6.63448 10.3832 8.87586 10.3832 11.1172Z" fill="#292625"/>
</svg>
